<svg xmlns="http://www.w3.org/2000/svg" xmlns:xlink="http://www.w3.org/1999/xlink" width="419" zoomAndPan="magnify" viewBox="0 0 314.25 107.999999" height="144" preserveAspectRatio="xMidYMid meet" version="1.0"><defs><g/><clipPath id="4ea91c9133"><path d="M 0 0.128906 L 313.5 0.128906 L 313.5 107.871094 L 0 107.871094 Z M 0 0.128906 " clip-rule="nonzero"/></clipPath><clipPath id="9ace7c1451"><path d="M 163 0.128906 L 194.058594 0.128906 L 194.058594 62 L 163 62 Z M 163 0.128906 " clip-rule="nonzero"/></clipPath><clipPath id="a0ee0a9ff0"><path d="M 119.234375 0.128906 L 151 0.128906 L 151 62 L 119.234375 62 Z M 119.234375 0.128906 " clip-rule="nonzero"/></clipPath></defs><g clip-path="url(#4ea91c9133)"><path fill="#ffffff" d="M 0 0.128906 L 313.5 0.128906 L 313.5 107.871094 L 0 107.871094 Z M 0 0.128906 " fill-opacity="1" fill-rule="nonzero"/></g><g clip-path="url(#9ace7c1451)"><path fill="#29acff" d="M 163.148438 0.121094 L 163.148438 12.746094 L 181.386719 30.984375 L 163.148438 49.222656 L 163.148438 61.847656 L 194.007812 30.984375 Z M 163.148438 0.121094 " fill-opacity="1" fill-rule="nonzero"/></g><g clip-path="url(#a0ee0a9ff0)"><path fill="#29acff" d="M 150.160156 12.746094 L 150.160156 0.121094 L 119.300781 30.984375 L 150.160156 61.847656 L 150.160156 49.222656 L 131.921875 30.984375 Z M 150.160156 12.746094 " fill-opacity="1" fill-rule="nonzero"/></g><path fill="#29acff" d="M 141.582031 30.984375 L 156.652344 15.910156 L 171.726562 30.984375 L 156.652344 46.054688 Z M 141.582031 30.984375 " fill-opacity="1" fill-rule="nonzero"/><g fill="#000000" fill-opacity="1"><g transform="translate(9.367545, 94.601708)"><g><path d="M 2.453125 0 L 2.453125 -15.140625 L 13.40625 -15.140625 C 15.550781 -15.140625 17.25 -14.894531 18.5 -14.40625 C 19.75 -13.925781 20.65625 -13.140625 21.21875 -12.046875 C 21.78125 -10.960938 22.0625 -9.472656 22.0625 -7.578125 C 22.0625 -5.671875 21.78125 -4.171875 21.21875 -3.078125 C 20.65625 -1.992188 19.75 -1.207031 18.5 -0.71875 C 17.25 -0.238281 15.550781 0 13.40625 0 Z M 7.015625 -11.28125 L 7.015625 -3.875 L 17.078125 -3.875 L 17.078125 -11.28125 Z M 7.015625 -11.28125 "/></g></g></g><g fill="#000000" fill-opacity="1"><g transform="translate(35.211611, 94.601708)"><g><path d="M 20 0 L 2.453125 0 L 2.453125 -15.140625 L 19.65625 -15.140625 L 19.65625 -11.4375 L 7.015625 -11.4375 L 7.015625 -9.125 L 16.234375 -9.125 L 16.234375 -6.015625 L 7.015625 -6.015625 L 7.015625 -3.703125 L 20 -3.703125 Z M 20 0 "/></g></g></g><g fill="#000000" fill-opacity="1"><g transform="translate(58.762958, 94.601708)"><g><path d="M 13.5 0 L 6.609375 0 L -0.0625 -15.03125 L -0.0625 -15.140625 L 4.90625 -15.140625 L 10.09375 -3.09375 L 10.203125 -3.09375 L 15.5 -15.140625 L 20.3125 -15.140625 L 20.3125 -15.03125 Z M 13.5 0 "/></g></g></g><g fill="#000000" fill-opacity="1"><g transform="translate(81.223582, 94.601708)"><g/></g></g><g fill="#000000" fill-opacity="1"><g transform="translate(90.350795, 94.601708)"><g><path d="M 11.71875 0.359375 C 7.820312 0.359375 4.421875 0.1875 1.515625 -0.15625 L 1.359375 -4.203125 C 4.285156 -3.816406 6.613281 -3.566406 8.34375 -3.453125 C 10.082031 -3.347656 12.132812 -3.257812 14.5 -3.1875 L 14.5 -5.640625 L 6.40625 -6.25 C 4.601562 -6.40625 3.269531 -6.847656 2.40625 -7.578125 C 1.539062 -8.316406 1.109375 -9.390625 1.109375 -10.796875 C 1.109375 -12.410156 1.691406 -13.597656 2.859375 -14.359375 C 4.035156 -15.117188 5.890625 -15.5 8.421875 -15.5 C 11.054688 -15.5 14.328125 -15.34375 18.234375 -15.03125 L 18.375 -10.984375 C 15.507812 -11.367188 12.898438 -11.632812 10.546875 -11.78125 C 8.972656 -11.882812 7.425781 -11.941406 5.90625 -11.953125 L 5.90625 -9.578125 L 13.5625 -8.96875 C 15.53125 -8.8125 16.972656 -8.367188 17.890625 -7.640625 C 18.816406 -6.910156 19.28125 -5.8125 19.28125 -4.34375 C 19.28125 -2.75 18.695312 -1.566406 17.53125 -0.796875 C 16.363281 -0.0234375 14.425781 0.359375 11.71875 0.359375 Z M 11.71875 0.359375 "/></g></g></g><g fill="#000000" fill-opacity="1"><g transform="translate(112.744643, 94.601708)"><g><path d="M 12.0625 0.359375 C 9.394531 0.359375 7.304688 0.109375 5.796875 -0.390625 C 4.296875 -0.890625 3.210938 -1.707031 2.546875 -2.84375 C 1.890625 -3.976562 1.5625 -5.554688 1.5625 -7.578125 C 1.5625 -9.609375 1.882812 -11.191406 2.53125 -12.328125 C 3.1875 -13.460938 4.265625 -14.273438 5.765625 -14.765625 C 7.273438 -15.253906 9.375 -15.5 12.0625 -15.5 C 14.75 -15.5 16.847656 -15.253906 18.359375 -14.765625 C 19.867188 -14.273438 20.945312 -13.460938 21.59375 -12.328125 C 22.25 -11.191406 22.578125 -9.609375 22.578125 -7.578125 C 22.578125 -5.554688 22.25 -3.976562 21.59375 -2.84375 C 20.945312 -1.707031 19.867188 -0.890625 18.359375 -0.390625 C 16.847656 0.109375 14.75 0.359375 12.0625 0.359375 Z M 12.0625 -3.65625 C 13.90625 -3.65625 15.75 -3.695312 17.59375 -3.78125 L 17.59375 -11.375 C 15.539062 -11.445312 13.695312 -11.484375 12.0625 -11.484375 C 10.4375 -11.484375 8.601562 -11.445312 6.5625 -11.375 L 6.5625 -3.78125 C 8.394531 -3.695312 10.226562 -3.65625 12.0625 -3.65625 Z M 12.0625 -3.65625 "/></g></g></g><g fill="#000000" fill-opacity="1"><g transform="translate(139.100677, 94.601708)"><g><path d="M 7.015625 0 L 2.453125 0 L 2.453125 -15.140625 L 19.59375 -15.140625 L 19.59375 -11.28125 L 7.015625 -11.28125 L 7.015625 -8.46875 L 16.125 -8.46875 L 16.125 -5.046875 L 7.015625 -5.046875 Z M 7.015625 0 "/></g></g></g><g fill="#000000" fill-opacity="1"><g transform="translate(161.071604, 94.601708)"><g><path d="M 12.109375 0 L 7.546875 0 L 7.546875 -11.28125 L 0.171875 -11.28125 L 0.171875 -15.140625 L 19.484375 -15.140625 L 19.484375 -11.28125 L 12.109375 -11.28125 Z M 12.109375 0 "/></g></g></g><g fill="#000000" fill-opacity="1"><g transform="translate(182.953492, 94.601708)"><g><path d="M 11.140625 0 L 4.59375 0 L 0.0625 -15.03125 L 0.0625 -15.140625 L 4.78125 -15.140625 L 8.234375 -3.09375 L 8.375 -3.09375 L 11.09375 -12.171875 L 16.171875 -12.171875 L 18.8125 -3.09375 L 18.953125 -3.09375 L 22.53125 -15.140625 L 27.09375 -15.140625 L 27.09375 -15.03125 L 22.328125 0 L 15.921875 0 L 13.609375 -7.90625 L 13.5 -7.90625 Z M 11.140625 0 "/></g></g></g><g fill="#000000" fill-opacity="1"><g transform="translate(212.336804, 94.601708)"><g><path d="M 7.171875 -15.140625 L 13.78125 -15.140625 L 21.0625 -0.109375 L 21.0625 0 L 16.09375 0 L 14.71875 -2.984375 L 6.171875 -2.984375 L 4.78125 0 L -0.0625 0 L -0.0625 -0.109375 Z M 10.390625 -12.046875 L 7.75 -6.34375 L 13.15625 -6.34375 L 10.515625 -12.046875 Z M 10.390625 -12.046875 "/></g></g></g><g fill="#000000" fill-opacity="1"><g transform="translate(235.57652, 94.601708)"><g><path d="M 21.21875 -0.109375 L 21.21875 0 L 15.34375 0 L 9.796875 -5.25 L 7.015625 -5.25 L 7.015625 0 L 2.453125 0 L 2.453125 -15.140625 L 14.734375 -15.140625 C 16.890625 -15.140625 18.472656 -14.726562 19.484375 -13.90625 C 20.492188 -13.082031 21 -11.847656 21 -10.203125 C 21 -8.671875 20.5625 -7.492188 19.6875 -6.671875 C 18.820312 -5.847656 17.46875 -5.382812 15.625 -5.28125 Z M 16.1875 -11.625 L 7.015625 -11.625 L 7.015625 -8.4375 L 16.1875 -8.4375 Z M 16.1875 -11.625 "/></g></g></g><g fill="#000000" fill-opacity="1"><g transform="translate(260.196304, 94.601708)"><g><path d="M 20 0 L 2.453125 0 L 2.453125 -15.140625 L 19.65625 -15.140625 L 19.65625 -11.4375 L 7.015625 -11.4375 L 7.015625 -9.125 L 16.234375 -9.125 L 16.234375 -6.015625 L 7.015625 -6.015625 L 7.015625 -3.703125 L 20 -3.703125 Z M 20 0 "/></g></g></g><g fill="#000000" fill-opacity="1"><g transform="translate(283.747654, 94.601708)"><g><path d="M 11.71875 0.359375 C 7.820312 0.359375 4.421875 0.1875 1.515625 -0.15625 L 1.359375 -4.203125 C 4.285156 -3.816406 6.613281 -3.566406 8.34375 -3.453125 C 10.082031 -3.347656 12.132812 -3.257812 14.5 -3.1875 L 14.5 -5.640625 L 6.40625 -6.25 C 4.601562 -6.40625 3.269531 -6.847656 2.40625 -7.578125 C 1.539062 -8.316406 1.109375 -9.390625 1.109375 -10.796875 C 1.109375 -12.410156 1.691406 -13.597656 2.859375 -14.359375 C 4.035156 -15.117188 5.890625 -15.5 8.421875 -15.5 C 11.054688 -15.5 14.328125 -15.34375 18.234375 -15.03125 L 18.375 -10.984375 C 15.507812 -11.367188 12.898438 -11.632812 10.546875 -11.78125 C 8.972656 -11.882812 7.425781 -11.941406 5.90625 -11.953125 L 5.90625 -9.578125 L 13.5625 -8.96875 C 15.53125 -8.8125 16.972656 -8.367188 17.890625 -7.640625 C 18.816406 -6.910156 19.28125 -5.8125 19.28125 -4.34375 C 19.28125 -2.75 18.695312 -1.566406 17.53125 -0.796875 C 16.363281 -0.0234375 14.425781 0.359375 11.71875 0.359375 Z M 11.71875 0.359375 "/></g></g></g></svg>