<svg xmlns="http://www.w3.org/2000/svg" xmlns:xlink="http://www.w3.org/1999/xlink" width="213" zoomAndPan="magnify" viewBox="0 0 159.75 149.999998" height="200" preserveAspectRatio="xMidYMid meet" version="1.0"><defs><g/><clipPath id="c39706970f"><path d="M 0 0.117188 L 159.5 0.117188 L 159.5 149.882812 L 0 149.882812 Z M 0 0.117188 " clip-rule="nonzero"/></clipPath><clipPath id="d2862877e5"><path d="M 0 0.117188 L 159.5 0.117188 L 159.5 149.402344 L 0 149.402344 Z M 0 0.117188 " clip-rule="nonzero"/></clipPath><clipPath id="e3a43085d2"><path d="M 17.222656 0.117188 L 142.238281 0.117188 C 146.804688 0.117188 151.1875 1.933594 154.417969 5.160156 C 157.644531 8.390625 159.460938 12.773438 159.460938 17.339844 L 159.460938 132.175781 C 159.460938 136.746094 157.644531 141.125 154.417969 144.355469 C 151.1875 147.585938 146.804688 149.402344 142.238281 149.402344 L 17.222656 149.402344 C 12.65625 149.402344 8.273438 147.585938 5.042969 144.355469 C 1.816406 141.125 0 136.746094 0 132.175781 L 0 17.339844 C 0 12.773438 1.816406 8.390625 5.042969 5.160156 C 8.273438 1.933594 12.65625 0.117188 17.222656 0.117188 Z M 17.222656 0.117188 " clip-rule="nonzero"/></clipPath><clipPath id="c121725cce"><path d="M 48.703125 14 L 70 14 L 70 46 L 48.703125 46 Z M 48.703125 14 " clip-rule="nonzero"/></clipPath><clipPath id="6c677e2850"><path d="M 87 14 L 109.359375 14 L 109.359375 46 L 87 46 Z M 87 14 " clip-rule="nonzero"/></clipPath><clipPath id="0e26878e24"><path d="M 69 7 L 89 7 L 89 53.890625 L 69 53.890625 Z M 69 7 " clip-rule="nonzero"/></clipPath><clipPath id="2470f7f1d6"><path d="M 68 6.714844 L 90 6.714844 L 90 53.890625 L 68 53.890625 Z M 68 6.714844 " clip-rule="nonzero"/></clipPath></defs><g clip-path="url(#c39706970f)"><path fill="#ffffff" d="M 0 0.117188 L 159.5 0.117188 L 159.5 149.882812 L 0 149.882812 Z M 0 0.117188 " fill-opacity="1" fill-rule="nonzero"/></g><g clip-path="url(#d2862877e5)"><g clip-path="url(#e3a43085d2)"><path fill="#171810" d="M 0 0.117188 L 159.195312 0.117188 L 159.195312 149.402344 L 0 149.402344 Z M 0 0.117188 " fill-opacity="1" fill-rule="nonzero"/></g></g><path fill="#03fa6e" d="M 67.78125 44.988281 C 67.445312 44.988281 67.117188 44.875 66.855469 44.667969 L 49.945312 31.363281 C 49.582031 31.078125 49.371094 30.648438 49.371094 30.1875 C 49.371094 29.726562 49.582031 29.296875 49.941406 29.007812 L 66.855469 15.707031 C 67.117188 15.496094 67.445312 15.386719 67.78125 15.386719 C 68.242188 15.386719 68.671875 15.589844 68.957031 15.957031 C 69.203125 16.269531 69.316406 16.664062 69.269531 17.058594 C 69.222656 17.457031 69.019531 17.8125 68.707031 18.058594 L 53.292969 30.1875 L 68.707031 42.3125 C 69.019531 42.5625 69.222656 42.917969 69.269531 43.3125 C 69.316406 43.710938 69.203125 44.101562 68.957031 44.417969 C 68.671875 44.78125 68.242188 44.988281 67.78125 44.988281 " fill-opacity="1" fill-rule="nonzero"/><g clip-path="url(#c121725cce)"><path fill="#2a446b" d="M 67.78125 14.746094 C 67.304688 14.746094 66.835938 14.90625 66.460938 15.203125 L 49.550781 28.507812 C 49.03125 28.917969 48.734375 29.527344 48.734375 30.1875 C 48.734375 30.84375 49.03125 31.457031 49.550781 31.867188 L 66.460938 45.171875 C 66.832031 45.464844 67.304688 45.625 67.78125 45.625 C 68.441406 45.625 69.054688 45.328125 69.457031 44.808594 C 69.8125 44.363281 69.96875 43.804688 69.902344 43.238281 C 69.835938 42.671875 69.550781 42.164062 69.101562 41.8125 L 54.324219 30.1875 L 69.101562 18.5625 C 69.550781 18.207031 69.835938 17.703125 69.902344 17.136719 C 69.96875 16.570312 69.8125 16.011719 69.457031 15.5625 C 69.054688 15.042969 68.4375 14.746094 67.78125 14.746094 Z M 67.78125 16.023438 C 68.035156 16.023438 68.289062 16.136719 68.457031 16.347656 C 68.753906 16.722656 68.6875 17.265625 68.3125 17.558594 L 52.261719 30.1875 L 68.3125 42.816406 C 68.6875 43.109375 68.753906 43.648438 68.457031 44.023438 C 68.289062 44.238281 68.035156 44.351562 67.78125 44.351562 C 67.59375 44.351562 67.40625 44.292969 67.25 44.167969 L 50.335938 30.863281 C 50.132812 30.699219 50.011719 30.449219 50.011719 30.1875 C 50.011719 29.921875 50.132812 29.675781 50.335938 29.511719 L 67.25 16.207031 C 67.40625 16.082031 67.59375 16.023438 67.78125 16.023438 " fill-opacity="1" fill-rule="nonzero"/></g><path fill="#03fa6e" d="M 90.09375 44.988281 C 89.632812 44.988281 89.203125 44.78125 88.914062 44.417969 C 88.402344 43.769531 88.515625 42.824219 89.167969 42.3125 L 104.582031 30.1875 L 89.167969 18.058594 C 88.515625 17.546875 88.402344 16.605469 88.914062 15.957031 C 89.203125 15.589844 89.632812 15.386719 90.09375 15.386719 C 90.425781 15.386719 90.757812 15.496094 91.019531 15.707031 L 107.929688 29.007812 C 108.292969 29.296875 108.5 29.726562 108.5 30.1875 C 108.5 30.648438 108.292969 31.078125 107.929688 31.363281 L 91.019531 44.667969 C 90.757812 44.875 90.425781 44.988281 90.09375 44.988281 " fill-opacity="1" fill-rule="nonzero"/><g clip-path="url(#6c677e2850)"><path fill="#2a446b" d="M 90.09375 14.746094 C 89.433594 14.746094 88.824219 15.042969 88.414062 15.5625 C 87.683594 16.488281 87.84375 17.832031 88.773438 18.5625 L 103.546875 30.1875 L 88.773438 41.8125 C 87.84375 42.539062 87.683594 43.886719 88.414062 44.808594 C 88.824219 45.328125 89.433594 45.625 90.09375 45.625 C 90.570312 45.625 91.035156 45.464844 91.410156 45.171875 L 108.324219 31.867188 C 108.84375 31.457031 109.136719 30.84375 109.136719 30.1875 C 109.136719 29.527344 108.84375 28.917969 108.328125 28.507812 L 91.414062 15.203125 C 91.039062 14.90625 90.570312 14.746094 90.09375 14.746094 Z M 90.09375 16.023438 C 90.28125 16.023438 90.46875 16.082031 90.625 16.207031 L 107.535156 29.511719 C 107.742188 29.675781 107.863281 29.921875 107.863281 30.1875 C 107.863281 30.449219 107.742188 30.699219 107.535156 30.863281 L 90.625 44.167969 C 90.46875 44.292969 90.28125 44.351562 90.09375 44.351562 C 89.839844 44.351562 89.585938 44.238281 89.417969 44.023438 C 89.125 43.648438 89.1875 43.109375 89.558594 42.816406 L 105.613281 30.1875 L 89.558594 17.558594 C 89.1875 17.265625 89.125 16.722656 89.417969 16.347656 C 89.585938 16.136719 89.839844 16.023438 90.09375 16.023438 " fill-opacity="1" fill-rule="nonzero"/></g><g clip-path="url(#0e26878e24)"><path fill="#03fa6e" d="M 70.53125 53.019531 C 70.347656 53.019531 70.164062 52.980469 69.992188 52.914062 C 69.621094 52.769531 69.324219 52.488281 69.164062 52.125 C 69 51.757812 68.992188 51.351562 69.136719 50.980469 L 85.652344 8.3125 C 85.875 7.742188 86.433594 7.355469 87.046875 7.355469 C 87.234375 7.355469 87.417969 7.390625 87.589844 7.457031 C 88.359375 7.757812 88.742188 8.625 88.445312 9.398438 L 71.929688 52.0625 C 71.710938 52.632812 71.144531 53.019531 70.53125 53.019531 " fill-opacity="1" fill-rule="nonzero"/></g><g clip-path="url(#2470f7f1d6)"><path fill="#2a446b" d="M 87.046875 6.71875 C 86.171875 6.71875 85.371094 7.269531 85.058594 8.082031 L 68.539062 50.746094 C 68.335938 51.28125 68.347656 51.859375 68.578125 52.382812 C 68.8125 52.902344 69.230469 53.304688 69.761719 53.511719 C 70.011719 53.605469 70.269531 53.65625 70.53125 53.65625 C 71.40625 53.65625 72.210938 53.105469 72.527344 52.289062 L 89.039062 9.625 C 89.464844 8.527344 88.917969 7.289062 87.816406 6.863281 C 87.574219 6.765625 87.3125 6.71875 87.046875 6.71875 Z M 87.046875 7.992188 C 87.152344 7.992188 87.257812 8.015625 87.359375 8.054688 C 87.800781 8.222656 88.023438 8.722656 87.851562 9.164062 L 71.335938 51.828125 C 71.203125 52.171875 70.878906 52.378906 70.53125 52.378906 C 70.429688 52.378906 70.324219 52.363281 70.222656 52.320312 C 69.777344 52.148438 69.558594 51.648438 69.730469 51.207031 L 86.246094 8.546875 C 86.378906 8.203125 86.703125 7.992188 87.046875 7.992188 " fill-opacity="1" fill-rule="nonzero"/></g><g fill="#ffffff" fill-opacity="1"><g transform="translate(37.773631, 99.313229)"><g><path d="M 17.984375 0 L 11.5 0 L 11.5 -27.46875 L 0.828125 -27.46875 L 0.828125 -33.546875 L 28.625 -33.546875 L 28.625 -27.46875 L 17.984375 -27.46875 Z M 17.984375 0 "/></g></g></g><g fill="#ffffff" fill-opacity="1"><g transform="translate(65.6427, 99.313229)"><g><path d="M 14.84375 0.65625 C 12.28125 0.65625 10.003906 0.109375 8.015625 -0.984375 C 6.035156 -2.085938 4.488281 -3.597656 3.375 -5.515625 C 2.257812 -7.429688 1.703125 -9.601562 1.703125 -12.03125 L 1.703125 -12.078125 C 1.703125 -14.503906 2.257812 -16.664062 3.375 -18.5625 C 4.488281 -20.46875 6.03125 -21.960938 8 -23.046875 C 9.96875 -24.140625 12.25 -24.6875 14.84375 -24.6875 C 17.4375 -24.6875 19.722656 -24.140625 21.703125 -23.046875 C 23.691406 -21.960938 25.242188 -20.46875 26.359375 -18.5625 C 27.484375 -16.664062 28.046875 -14.503906 28.046875 -12.078125 L 28.046875 -12.03125 C 28.046875 -9.601562 27.484375 -7.429688 26.359375 -5.515625 C 25.242188 -3.597656 23.691406 -2.085938 21.703125 -0.984375 C 19.722656 0.109375 17.4375 0.65625 14.84375 0.65625 Z M 14.84375 -5.21875 C 16.164062 -5.21875 17.316406 -5.519531 18.296875 -6.125 C 19.273438 -6.726562 20.039062 -7.546875 20.59375 -8.578125 C 21.144531 -9.617188 21.421875 -10.769531 21.421875 -12.03125 L 21.421875 -12.125 C 21.421875 -13.382812 21.148438 -14.519531 20.609375 -15.53125 C 20.078125 -16.539062 19.320312 -17.335938 18.34375 -17.921875 C 17.363281 -18.515625 16.195312 -18.8125 14.84375 -18.8125 C 13.519531 -18.8125 12.367188 -18.515625 11.390625 -17.921875 C 10.410156 -17.335938 9.644531 -16.539062 9.09375 -15.53125 C 8.539062 -14.519531 8.265625 -13.382812 8.265625 -12.125 L 8.265625 -12.03125 C 8.265625 -10.769531 8.539062 -9.617188 9.09375 -8.578125 C 9.644531 -7.546875 10.414062 -6.726562 11.40625 -6.125 C 12.40625 -5.519531 13.550781 -5.21875 14.84375 -5.21875 Z M 14.84375 -5.21875 "/></g></g></g><g fill="#ffffff" fill-opacity="1"><g transform="translate(93.759854, 99.313229)"><g><path d="M 8.8125 9.09375 L 2.234375 9.09375 L 2.234375 -22.421875 C 3.671875 -22.992188 5.273438 -23.515625 7.046875 -23.984375 C 8.828125 -24.453125 10.820312 -24.6875 13.03125 -24.6875 C 15.726562 -24.6875 18.0625 -24.132812 20.03125 -23.03125 C 22.007812 -21.9375 23.535156 -20.4375 24.609375 -18.53125 C 25.679688 -16.625 26.21875 -14.457031 26.21875 -12.03125 L 26.21875 -11.953125 C 26.21875 -9.554688 25.703125 -7.40625 24.671875 -5.5 C 23.640625 -3.59375 22.164062 -2.09375 20.25 -1 C 18.332031 0.0820312 16.019531 0.625 13.3125 0.625 C 12.539062 0.625 11.773438 0.5625 11.015625 0.4375 C 10.265625 0.3125 9.53125 0.148438 8.8125 -0.046875 Z M 13.03125 -5.25 C 15.207031 -5.25 16.847656 -5.890625 17.953125 -7.171875 C 19.054688 -8.453125 19.609375 -10.046875 19.609375 -11.953125 L 19.609375 -12.03125 C 19.609375 -13.96875 19.054688 -15.582031 17.953125 -16.875 C 16.847656 -18.164062 15.207031 -18.8125 13.03125 -18.8125 C 11.507812 -18.8125 10.101562 -18.648438 8.8125 -18.328125 L 8.8125 -5.921875 C 9.445312 -5.753906 10.132812 -5.597656 10.875 -5.453125 C 11.625 -5.316406 12.34375 -5.25 13.03125 -5.25 Z M 13.03125 -5.25 "/></g></g></g><g fill="#03fa6e" fill-opacity="1"><g transform="translate(45.312359, 128.451222)"><g><path d="M 5.625 0.25 C 3.945312 0.25 2.332031 -0.0664062 0.78125 -0.703125 L 1.609375 -2.921875 C 2.253906 -2.640625 2.898438 -2.429688 3.546875 -2.296875 C 4.203125 -2.171875 4.804688 -2.109375 5.359375 -2.109375 C 6.015625 -2.109375 6.539062 -2.171875 6.9375 -2.296875 C 7.34375 -2.429688 7.546875 -2.695312 7.546875 -3.09375 C 7.546875 -3.382812 7.414062 -3.613281 7.15625 -3.78125 C 6.90625 -3.957031 6.375 -4.15625 5.5625 -4.375 L 4.53125 -4.640625 C 3.375 -4.953125 2.523438 -5.390625 1.984375 -5.953125 C 1.453125 -6.515625 1.1875 -7.25 1.1875 -8.15625 C 1.1875 -9.1875 1.570312 -9.988281 2.34375 -10.5625 C 3.125 -11.144531 4.234375 -11.4375 5.671875 -11.4375 C 6.492188 -11.4375 7.304688 -11.347656 8.109375 -11.171875 C 8.910156 -11.003906 9.59375 -10.773438 10.15625 -10.484375 L 9.28125 -8.359375 C 8.789062 -8.609375 8.242188 -8.789062 7.640625 -8.90625 C 7.035156 -9.019531 6.5 -9.078125 6.03125 -9.078125 C 5.476562 -9.078125 5.046875 -9.015625 4.734375 -8.890625 C 4.421875 -8.773438 4.265625 -8.5625 4.265625 -8.25 C 4.265625 -7.96875 4.40625 -7.742188 4.6875 -7.578125 C 4.976562 -7.410156 5.457031 -7.234375 6.125 -7.046875 L 6.90625 -6.84375 C 8.15625 -6.488281 9.070312 -6.03125 9.65625 -5.46875 C 10.25 -4.90625 10.546875 -4.191406 10.546875 -3.328125 C 10.546875 -0.941406 8.90625 0.25 5.625 0.25 Z M 5.625 0.25 "/></g></g></g><g fill="#03fa6e" fill-opacity="1"><g transform="translate(55.891468, 128.451222)"><g><path d="M 8.21875 -3 L 8.21875 -10.90625 L 11.25 -10.90625 L 11.25 0.078125 C 11.25 1.179688 11.019531 2.046875 10.5625 2.671875 C 10.101562 3.304688 9.488281 3.757812 8.71875 4.03125 C 7.957031 4.300781 7.125 4.4375 6.21875 4.4375 C 5.769531 4.4375 5.3125 4.40625 4.84375 4.34375 C 4.375 4.289062 3.941406 4.21875 3.546875 4.125 C 3.160156 4.039062 2.851562 3.945312 2.625 3.84375 L 1.953125 0.9375 C 2.316406 1.101562 2.726562 1.25 3.1875 1.375 C 3.65625 1.5 4.125 1.59375 4.59375 1.65625 C 5.0625 1.71875 5.460938 1.75 5.796875 1.75 C 6.703125 1.75 7.332031 1.59375 7.6875 1.28125 C 8.039062 0.96875 8.21875 0.46875 8.21875 -0.21875 L 8.21875 -0.609375 C 7.863281 -0.578125 7.503906 -0.546875 7.140625 -0.515625 C 6.773438 -0.492188 6.441406 -0.484375 6.140625 -0.484375 C 5.460938 -0.484375 4.816406 -0.550781 4.203125 -0.6875 C 3.585938 -0.820312 3.039062 -1.046875 2.5625 -1.359375 C 2.09375 -1.679688 1.722656 -2.117188 1.453125 -2.671875 C 1.191406 -3.222656 1.0625 -3.914062 1.0625 -4.75 L 1.0625 -11.015625 L 4.09375 -11.015625 L 4.09375 -4.765625 C 4.09375 -4.054688 4.273438 -3.5625 4.640625 -3.28125 C 5.015625 -3 5.554688 -2.859375 6.265625 -2.859375 C 6.554688 -2.859375 6.882812 -2.867188 7.25 -2.890625 C 7.613281 -2.921875 7.9375 -2.957031 8.21875 -3 Z M 8.21875 -3 "/></g></g></g><g fill="#03fa6e" fill-opacity="1"><g transform="translate(67.469, 128.451222)"><g><path d="M 4.09375 0 L 1.03125 0 L 1.03125 -10.890625 C 1.644531 -11.003906 2.273438 -11.101562 2.921875 -11.1875 C 3.566406 -11.269531 4.175781 -11.335938 4.75 -11.390625 C 5.320312 -11.441406 5.796875 -11.46875 6.171875 -11.46875 C 7.078125 -11.46875 7.914062 -11.34375 8.6875 -11.09375 C 9.457031 -10.84375 10.078125 -10.40625 10.546875 -9.78125 C 11.015625 -9.164062 11.25 -8.304688 11.25 -7.203125 L 11.25 0 L 8.21875 0 L 8.21875 -6.84375 C 8.21875 -7.53125 8.03125 -8.015625 7.65625 -8.296875 C 7.289062 -8.585938 6.75 -8.734375 6.03125 -8.734375 C 5.757812 -8.734375 5.457031 -8.71875 5.125 -8.6875 C 4.789062 -8.65625 4.445312 -8.609375 4.09375 -8.546875 Z M 4.09375 0 "/></g></g></g><g fill="#03fa6e" fill-opacity="1"><g transform="translate(79.04653, 128.451222)"><g><path d="M 9.46875 0 L 5.96875 0 C 4.65625 0 3.726562 -0.296875 3.1875 -0.890625 C 2.644531 -1.484375 2.375 -2.382812 2.375 -3.59375 L 2.375 -8.21875 L 0.4375 -8.21875 L 0.4375 -11.015625 L 2.375 -11.015625 L 2.375 -14.40625 L 5.4375 -14.40625 L 5.4375 -11.015625 L 9.453125 -11.015625 L 9.453125 -8.21875 L 5.4375 -8.21875 L 5.4375 -4.546875 C 5.4375 -3.929688 5.585938 -3.488281 5.890625 -3.21875 C 6.203125 -2.957031 6.679688 -2.828125 7.328125 -2.828125 L 9.46875 -2.828125 Z M 9.46875 0 "/></g></g></g><g fill="#03fa6e" fill-opacity="1"><g transform="translate(88.588815, 128.451222)"><g><path d="M 6.1875 -11.40625 C 7.207031 -11.40625 8.09375 -11.265625 8.84375 -10.984375 C 9.601562 -10.710938 10.191406 -10.257812 10.609375 -9.625 C 11.023438 -9 11.234375 -8.140625 11.234375 -7.046875 L 11.234375 -0.234375 C 10.472656 -0.0664062 9.640625 0.0625 8.734375 0.15625 C 7.828125 0.257812 6.992188 0.3125 6.234375 0.3125 C 5.109375 0.3125 4.132812 0.195312 3.3125 -0.03125 C 2.5 -0.269531 1.867188 -0.648438 1.421875 -1.171875 C 0.984375 -1.691406 0.765625 -2.382812 0.765625 -3.25 L 0.765625 -3.28125 C 0.765625 -4.457031 1.207031 -5.320312 2.09375 -5.875 C 2.976562 -6.425781 4.175781 -6.703125 5.6875 -6.703125 C 6.09375 -6.703125 6.5 -6.691406 6.90625 -6.671875 C 7.3125 -6.648438 7.738281 -6.609375 8.1875 -6.546875 L 8.1875 -6.953125 C 8.1875 -7.640625 7.953125 -8.125 7.484375 -8.40625 C 7.023438 -8.6875 6.375 -8.828125 5.53125 -8.828125 C 4.976562 -8.828125 4.34375 -8.757812 3.625 -8.625 C 2.90625 -8.5 2.25 -8.3125 1.65625 -8.0625 L 2.328125 -10.765625 C 2.609375 -10.890625 2.957031 -11 3.375 -11.09375 C 3.800781 -11.1875 4.257812 -11.257812 4.75 -11.3125 C 5.238281 -11.375 5.71875 -11.40625 6.1875 -11.40625 Z M 3.890625 -3.4375 L 3.890625 -3.40625 C 3.890625 -2.925781 4.101562 -2.582031 4.53125 -2.375 C 4.96875 -2.175781 5.578125 -2.078125 6.359375 -2.078125 C 6.890625 -2.078125 7.5 -2.128906 8.1875 -2.234375 L 8.1875 -4.609375 C 7.875 -4.660156 7.550781 -4.695312 7.21875 -4.71875 C 6.882812 -4.75 6.597656 -4.765625 6.359375 -4.765625 C 5.585938 -4.765625 4.984375 -4.664062 4.546875 -4.46875 C 4.109375 -4.269531 3.890625 -3.925781 3.890625 -3.4375 Z M 3.890625 -3.4375 "/></g></g></g><g fill="#03fa6e" fill-opacity="1"><g transform="translate(100.089552, 128.451222)"><g><path d="M 7.984375 -5.71875 L 12.234375 0 L 8.6875 0 L 6.171875 -3.34375 L 3.609375 0 L 0.265625 0 L 4.5 -5.625 L 0.5 -11.015625 L 4.03125 -11.015625 L 6.28125 -7.984375 L 8.5625 -11.015625 L 12 -11.015625 Z M 7.984375 -5.71875 "/></g></g></g></svg>