<svg width="53" height="34" viewBox="0 0 281 148" fill="none" xmlns="http://www.w3.org/2000/svg">
    <path
        d="M172.33 14.2358C178.319 1.95534 193.13 -3.14447 205.411 2.84513C217.691 8.83474 222.791 23.6456 216.801 35.9261L169.083 133.764C163.093 146.044 148.282 151.144 136.002 145.154C123.721 139.165 118.622 124.354 124.611 112.074L172.33 14.2358Z"
        fill="#25A4AD"></path>
    <path
        d="M2.84516 35.9267C-3.14445 23.6462 1.95533 8.83531 14.2358 2.84571C26.5164 -3.1439 41.3272 1.95588 47.3168 14.2364L95.0354 112.074C101.025 124.355 95.9253 139.165 83.6447 145.155C71.3642 151.145 56.5534 146.045 50.5638 133.764L2.84516 35.9267Z"
        fill="#25A4AD"></path>
    <path
        d="M77.0641 35.9261C71.0745 23.6456 76.1742 8.8347 88.4547 2.8451C100.735 -3.14451 115.546 1.95527 121.536 14.2358L169.254 112.073C175.244 124.354 170.144 139.165 157.864 145.154C145.583 151.144 130.772 146.044 124.783 133.764L77.0641 35.9261Z"
        fill="#4EC7CF"></path>
    <path
        d="M215.605 84.1148C215.605 79.6965 219.186 76.1148 223.605 76.1148H272.218C276.637 76.1148 280.218 79.6965 280.218 84.1148V132.729C280.218 137.147 276.637 140.729 272.218 140.729H223.605C219.186 140.729 215.605 137.147 215.605 132.729V84.1148Z"
        fill="#0A3361"></path>
</svg>